<?xml version="1.0" encoding="UTF-8"?>
<svg version="1.1" viewBox="0 0 2048 778" width="1280" height="1280" xmlns="http://www.w3.org/2000/svg">
<path transform="translate(343)" d="m0 0h629v778h-901l-21-2-12-5-10-6-9-9-9-13-9-19-1-3v-43l15-33 18-37 13-28 15-31 13-28 19-39 13-28 16-33 13-28 14-29 11-23 19-40 18-38 14-29 13-28 19-39 13-28 16-33 13-28 20-41 7-12 11-12 15-10z" fill="#E60338"/>
<path transform="translate(1075)" d="m0 0h925l15 9 10 9 8 9 7 12 7 17 1 4v35l-11 26-16 33-13 28-16 33-13 28-17 35-13 28-16 33-13 28-18 37-13 28-15 31-13 28-11 22-13 28-16 33-13 28-16 33-11 23-18 38-17 36-10 18-11 12-7 6-17 8-11 1-108 1h-506l-1-12z" fill="#0389FD"/>
</svg>
