<?xml version="1.0" encoding="UTF-8"?>
<svg version="1.1" xmlns="http://www.w3.org/2000/svg" width="596" height="84">
<path d="M0 0 C196.68 0 393.36 0 596 0 C596 27.72 596 55.44 596 84 C399.32 84 202.64 84 0 84 C0 56.28 0 28.56 0 0 Z " fill="#FCFCFC" transform="translate(0,0)"/>
<path d="M0 0 C34.32 0 68.64 0 104 0 C104 27.72 104 55.44 104 84 C69.68 84 35.36 84 0 84 C0 56.28 0 28.56 0 0 Z " fill="#EC2C40" transform="translate(0,0)"/>
<path d="M0 0 C27.08235937 -0.04010881 27.08235937 -0.04010881 38.59960938 -0.04882812 C46.46769889 -0.05481294 54.3357768 -0.06190365 62.20385742 -0.07543945 C68.54508275 -0.08628064 74.88629565 -0.09227947 81.22752953 -0.09487724 C83.65050642 -0.09672926 86.07348262 -0.10034562 88.49645424 -0.10573006 C91.88217278 -0.11295678 95.26783948 -0.11399024 98.65356445 -0.11352539 C99.66200912 -0.11712067 100.6704538 -0.12071594 101.7094574 -0.12442017 C103.09135757 -0.12235817 103.09135757 -0.12235817 104.50117493 -0.12025452 C105.30221303 -0.12117631 106.10325113 -0.1220981 106.92856312 -0.12304783 C109 0 109 0 112 1 C114.69060771 5.03591156 114.76714713 8.34132472 114 13 C112.85070901 15.87775224 111.44451284 18.5208053 109.96875 21.24609375 C107.43153206 25.96126589 105.30870144 30.86411355 103.125 35.75 C99.87819833 42.96666632 96.52114589 50.0946239 92.90771484 57.13452148 C91.1094587 60.67127437 89.43767484 64.23460676 87.8671875 67.87890625 C87.51285645 68.70036133 87.15852539 69.52181641 86.79345703 70.36816406 C86.11471367 71.958145 85.44585543 73.5523946 84.78857422 75.15136719 C84.48193848 75.87098633 84.17530273 76.59060547 83.859375 77.33203125 C83.59608398 77.96858643 83.33279297 78.6051416 83.06152344 79.26098633 C81.62353784 81.61672953 80.40144211 82.59215319 78 84 C75.3789481 84.27470225 73.00278028 84.38001159 70.38574219 84.34057617 C69.61210957 84.34093778 68.83847694 84.34129938 68.04140091 84.34167194 C65.54296023 84.33943691 63.0451952 84.31661087 60.546875 84.29296875 C59.00211917 84.28855661 57.45735887 84.28549687 55.91259766 84.28381348 C50.19166327 84.26809974 44.47082496 84.22621596 38.75 84.1875 C25.9625 84.125625 13.175 84.06375 0 84 C0 56.28 0 28.56 0 0 Z " fill="#00A9E5" transform="translate(104,0)"/>
<path d="M0 0 C3.6641636 2.78188342 5.48271192 5.60354929 7.15234375 9.83203125 C7.58322878 13.1785051 7.59332371 16.49631769 7.59375 19.8671875 C7.60695786 20.82346542 7.62016571 21.77974335 7.6337738 22.76499939 C7.67452917 25.80820668 7.69630248 28.85111349 7.71484375 31.89453125 C7.73866831 34.94142785 7.76683529 37.98804309 7.80662537 41.03477478 C7.83088803 42.92673438 7.84582321 44.81884274 7.85023499 46.71095276 C7.90396947 51.25362825 8.17458401 54.66037123 10.15234375 58.83203125 C10.15234375 59.82203125 10.15234375 60.81203125 10.15234375 61.83203125 C7.67310574 61.8588822 5.19415535 61.87879672 2.71484375 61.89453125 C2.00779297 61.90291016 1.30074219 61.91128906 0.57226562 61.91992188 C-1.23459184 61.92856713 -3.04153228 61.88423136 -4.84765625 61.83203125 C-5.84765625 60.83203125 -5.84765625 60.83203125 -5.91015625 58.26953125 C-5.88953125 57.46515625 -5.86890625 56.66078125 -5.84765625 55.83203125 C-6.86085938 56.46431641 -6.86085938 56.46431641 -7.89453125 57.109375 C-8.7865625 57.65722656 -9.67859375 58.20507812 -10.59765625 58.76953125 C-11.479375 59.31480469 -12.36109375 59.86007813 -13.26953125 60.421875 C-19.2105841 63.67145088 -26.63603934 64.02712255 -33.1328125 62.18359375 C-39.43033817 59.34424692 -44.20722368 54.21707728 -46.84765625 47.83203125 C-47.70636494 41.96086022 -47.14643524 36.74748362 -44.16796875 31.58203125 C-39.90183398 25.92750942 -33.56590128 23.43377062 -26.84765625 21.83203125 C-23.31230996 21.50738028 -19.83123449 21.54306606 -16.28515625 21.64453125 C-15.37185547 21.65806641 -14.45855469 21.67160156 -13.51757812 21.68554688 C-11.29362366 21.7204781 -9.07097673 21.76951539 -6.84765625 21.83203125 C-7.70857398 15.10604304 -7.70857398 15.10604304 -10.84765625 9.26953125 C-14.71556652 6.48947074 -18.18970435 6.33936326 -22.84765625 6.83203125 C-26.22874601 8.25960248 -27.49921644 9.07096536 -29.03515625 12.42578125 C-30.84765625 14.83203125 -30.84765625 14.83203125 -34.203125 15.3203125 C-36.09998047 15.23330078 -36.09998047 15.23330078 -38.03515625 15.14453125 C-39.30746094 15.09941406 -40.57976562 15.05429687 -41.890625 15.0078125 C-42.86644531 14.94980469 -43.84226562 14.89179688 -44.84765625 14.83203125 C-45.22975561 9.46735622 -45.22975561 9.46735622 -43.52734375 6.63671875 C-31.59287956 -6.124375 -15.34503015 -9.70013534 0 0 Z " fill="#242020" transform="translate(405.84765625,13.16796875)"/>
<path d="M0 0 C7.66697908 5.29049848 9.997234 11.52935928 12.2890625 20.2578125 C13.0010131 25.02572409 12.8046875 29.89016426 12.8046875 34.7109375 C-1.3853125 34.7109375 -15.5753125 34.7109375 -30.1953125 34.7109375 C-28.13377634 42.95708214 -27.13403436 46.08512293 -20.1953125 50.7109375 C-11.10292933 51.86937447 -5.02980622 50.09508311 2.3046875 44.9609375 C2.7996875 44.5484375 3.2946875 44.1359375 3.8046875 43.7109375 C6.1146875 46.0209375 8.4246875 48.3309375 10.8046875 50.7109375 C7.78524615 56.74982021 2.88622921 60.1454065 -3.3828125 62.5859375 C-12.08321997 65.11477566 -21.08999083 64.69249902 -29.1953125 60.7109375 C-36.88116207 56.47587753 -42.4301081 50.00655069 -45.1953125 41.7109375 C-47.83219437 31.40312655 -46.70059323 20.29664118 -42.1953125 10.7109375 C-31.94928948 -3.66407988 -15.88815263 -9.32934229 0 0 Z " fill="#262222" transform="translate(537.1953125,12.2890625)"/>
<path d="M0 0 C7.30998674 5.28956814 9.87558946 12.50235785 12 21 C12 25.62 12 30.24 12 35 C-2.19 35 -16.38 35 -31 35 C-28.63308034 43.51113544 -28.63308034 43.51113544 -22.734375 49.6484375 C-17.99971334 51.98871312 -13.16173674 51.5252785 -8 51 C-4.14849181 49.55568443 -1.18908485 47.5757993 2 45 C4.95409701 46.37154504 7.44008376 47.98863724 10 50 C9.26909301 54.33858894 7.28066235 55.91714549 3.9765625 58.609375 C-3.98009219 64.20733759 -12.55212651 64.69946703 -22 64 C-29.74325656 62.3208684 -35.86688929 57.96069387 -41 52 C-47.06524813 41.79630908 -47.28371472 29.64446427 -45.57421875 18.1328125 C-43.29949681 10.28990617 -37.56491847 3.30494229 -30.73046875 -1.0703125 C-21.19324152 -6.19415015 -9.20718536 -5.37750687 0 0 Z " fill="#262121" transform="translate(295,12)"/>
<path d="M0 0 C3.80152511 2.75118222 6.87249571 6.35737103 8.48828125 10.80078125 C8.48828125 12.78078125 8.48828125 14.76078125 8.48828125 16.80078125 C3.53828125 16.80078125 -1.41171875 16.80078125 -6.51171875 16.80078125 C-7.09953125 15.13015625 -7.09953125 15.13015625 -7.69921875 13.42578125 C-8.83231793 10.82909563 -9.27230386 9.95811103 -11.69921875 8.36328125 C-16.85739543 7.33164591 -20.77874777 6.86208864 -25.51171875 9.42578125 C-27.7614654 11.68564676 -27.7614654 11.68564676 -28.01171875 14.86328125 C-27.45253744 18.14847145 -27.02782944 18.76983989 -24.51171875 20.80078125 C-22.46238642 21.66609411 -22.46238642 21.66609411 -20.13671875 22.23828125 C-19.25757813 22.48578125 -18.3784375 22.73328125 -17.47265625 22.98828125 C-16.49554688 23.25640625 -15.5184375 23.52453125 -14.51171875 23.80078125 C3.07080615 28.74200605 3.07080615 28.74200605 8.48828125 36.80078125 C9.50857062 42.75364198 9.86003164 49.66813657 6.48828125 54.92578125 C3.45648247 58.34516794 -0.3266615 60.1283436 -4.51171875 61.80078125 C-5.259375 62.15785156 -6.00703125 62.51492187 -6.77734375 62.8828125 C-13.7283875 65.21637719 -23.74639115 64.99408777 -30.51171875 62.23828125 C-37.63909733 58.36055038 -43.13320292 53.67961493 -45.51171875 45.80078125 C-45.51171875 44.48078125 -45.51171875 43.16078125 -45.51171875 41.80078125 C-40.56171875 41.80078125 -35.61171875 41.80078125 -30.51171875 41.80078125 C-30.05796875 42.91453125 -29.60421875 44.02828125 -29.13671875 45.17578125 C-27.78705889 48.76277133 -27.78705889 48.76277133 -25.51171875 50.80078125 C-20.98889071 52.3083906 -16.21359503 52.34009178 -11.51171875 51.80078125 C-8.30303324 50.40387008 -8.30303324 50.40387008 -6.51171875 47.80078125 C-5.98318183 44.56349262 -5.82517276 42.76194564 -7.76171875 40.05078125 C-11.73045143 37.21597219 -15.40999728 36.34707454 -20.19921875 35.48828125 C-29.76864484 33.4909244 -36.98848617 30.12508178 -42.51171875 21.80078125 C-43.77048856 18.02447181 -44.24946826 14.70528572 -43.51171875 10.80078125 C-39.90345929 4.10491721 -34.33858397 -1.19236238 -27.06640625 -3.6484375 C-17.21277507 -5.77284422 -8.83735295 -4.73036735 0 0 Z " fill="#262222" transform="translate(471.51171875,12.19921875)"/>
<path d="M0 0 C11.88 0 23.76 0 36 0 C28 16 28 16 24 23.875 C20.76185036 30.29356319 17.81780088 36.82006427 14.94067383 43.40722656 C12.82620698 48.22266997 10.57802143 52.94095642 8.1875 57.625 C2.76359765 68.27377707 2.76359765 68.27377707 2 80 C3.33830958 82.4595774 3.33830958 82.4595774 5 84 C3.35 84 1.7 84 0 84 C0 56.28 0 28.56 0 0 Z " fill="#FEFDFD" transform="translate(0,0)"/>
<path d="M0 0 C1.051875 -0.00386719 1.051875 -0.00386719 2.125 -0.0078125 C4 0.125 4 0.125 6 1.125 C6 5.745 6 10.365 6 15.125 C2.51692708 15.25520833 -0.96614583 15.38541667 -4.44921875 15.515625 C-8.71785171 16.24819567 -10.12977798 16.87578315 -13 20.125 C-13.76799251 23.67239278 -13.72115693 27.17831256 -13.70703125 30.796875 C-13.72215256 31.83442932 -13.73727386 32.87198364 -13.75285339 33.940979 C-13.79581634 37.25253893 -13.80457701 40.56318884 -13.8125 43.875 C-13.83563751 46.12111809 -13.86100127 48.36721443 -13.88867188 50.61328125 C-13.9516097 56.11726826 -13.98387778 61.62068478 -14 67.125 C-18.95 67.125 -23.9 67.125 -29 67.125 C-29 45.345 -29 23.565 -29 1.125 C-24.38 1.125 -19.76 1.125 -15 1.125 C-15 3.435 -15 5.745 -15 8.125 C-14.34 8.125 -13.68 8.125 -13 8.125 C-12.6596875 7.2278125 -12.6596875 7.2278125 -12.3125 6.3125 C-9.68103885 1.92673142 -4.94319362 -0.01817351 0 0 Z " fill="#252121" transform="translate(590,7.875)"/>
<path d="M0 0 C0 4.29 0 8.58 0 13 C-1.69125 13.103125 -3.3825 13.20625 -5.125 13.3125 C-9.69490974 13.73008506 -13.11007656 14.4067177 -17 17 C-19.09868217 20.14802325 -19.25962003 20.9602183 -19.31884766 24.56323242 C-19.33871735 25.48396042 -19.35858704 26.40468842 -19.37905884 27.35331726 C-19.39638565 28.83938225 -19.39638565 28.83938225 -19.4140625 30.35546875 C-19.43342865 31.37224197 -19.4527948 32.3890152 -19.4727478 33.43659973 C-19.53256741 36.68681427 -19.57893876 39.93706417 -19.625 43.1875 C-19.66317756 45.38998948 -19.70222916 47.59246399 -19.7421875 49.79492188 C-19.83827103 55.19649316 -19.92229349 60.59813435 -20 66 C-24.95 66 -29.9 66 -35 66 C-35 44.22 -35 22.44 -35 0 C-30.05 0 -25.1 0 -20 0 C-19.67 1.98 -19.34 3.96 -19 6 C-18.2575 5.21625 -17.515 4.4325 -16.75 3.625 C-12.09004388 -0.82313993 -6.31806806 -3.15903403 0 0 Z " fill="#262222" transform="translate(353,9)"/>
<path d="M0 0 C3.63 0 7.26 0 11 0 C11 27.72 11 55.44 11 84 C7.37 84 3.74 84 0 84 C0 56.28 0 28.56 0 0 Z " fill="#FBFCFD" transform="translate(104,0)"/>
<path d="M0 0 C1.03253906 0.01353516 1.03253906 0.01353516 2.0859375 0.02734375 C3.76577838 0.05067487 5.44543746 0.08653674 7.125 0.125 C8.19474041 11.56952444 8.19474041 11.56952444 5.63671875 15.2890625 C0.48506324 19.6194396 -3.47672736 20.5486978 -10.1640625 20.4609375 C-12.875 20.125 -12.875 20.125 -16.0625 18.125 C-18.3872014 14.27721837 -18.82470556 11.50962191 -17.875 7.125 C-16.00928935 3.82412731 -14.70793673 2.4777732 -11.21875 1 C-7.4168658 0.00511441 -3.89374978 -0.09809835 0 0 Z " fill="#F6F6F6" transform="translate(391.875,43.875)"/>
<path d="M0 0 C3.49226921 1.6738095 5.47012849 4.06068232 7.375 7.4375 C8 10 8 10 8 16 C-1.24 16 -10.48 16 -20 16 C-19.03770638 9.26394468 -18.16250542 5.88124138 -13.19921875 1.359375 C-9.12110643 -1.16137649 -4.61547155 -0.71469675 0 0 Z " fill="#F6F6F6" transform="translate(284,20)"/>
<path d="M0 0 C4.08616572 2.89436739 6.16742237 6.37033021 8 11 C8 12.65 8 14.3 8 16 C-1.24 16 -10.48 16 -20 16 C-18.87284861 6.9827889 -18.87284861 6.9827889 -16.0625 4.0625 C-15.53785156 3.49660156 -15.01320313 2.93070313 -14.47265625 2.34765625 C-10.52052671 -1.26901402 -5.02675643 -0.6401658 0 0 Z " fill="#F7F7F7" transform="translate(527,20)"/>
<path d="M0 0 C0.33 0 0.66 0 1 0 C1.12117187 0.62648438 1.24234375 1.25296875 1.3671875 1.8984375 C1.53476562 2.71570313 1.70234375 3.53296875 1.875 4.375 C2.03742188 5.18710938 2.19984375 5.99921875 2.3671875 6.8359375 C2.86658932 9.18673923 2.86658932 9.18673923 5 11 C3.35 11 1.7 11 0 11 C0 7.37 0 3.74 0 0 Z " fill="#FAD3D7" transform="translate(0,73)"/>
</svg>
